<svg xmlns="http://www.w3.org/2000/svg" viewBox="0 0 540 540">
    <title>
        react-stocks
    </title>
    <g data-name="Layer 1">
        <path id="container" fill="none" d="M0 0h540v540H0z"/>
        <g id="logo">
            <g id="letters" fill="#ffffff">
                <path id="S1" d="M40.77 448.38c.8 7.21 7.81 11.95 17.39 11.95 9.17 0 15.78-4.74 15.78-11.24 0-5.65-4-9-13.41-11.34l-9.43-2.27c-13.36-3.23-19.56-9.48-19.56-19.61 0-12.55 10.94-21.17 26.47-21.17 15.37 0 25.91 8.62 26.26 21.17h-11c-.65-7.26-6.65-11.64-15.42-11.64s-14.77 4.43-14.77 10.88c0 5.15 3.83 8.17 13.2 10.49l8 2c14.92 3.52 21.12 9.52 21.12 20.16 0 13.61-10.84 22.13-28.08 22.13-16.13 0-27-8.32-27.72-21.48z"/>
                <path id="T" d="M131.7 468.65v-63h-22.28v-9.73h55.81v9.73H143v63z"/>
                <path id="C" d="M282.34 432.25c0-23 13-37.55 33.32-37.55 16.48 0 28.94 10.13 30.85 25.3h-11.19c-2-9.32-9.78-15.42-19.66-15.42-13.21 0-21.77 10.84-21.77 27.67 0 17 8.46 27.73 21.82 27.73 10.13 0 17.34-5.19 19.61-14h11.24c-2.77 15-14.16 23.85-30.9 23.85-20.41.03-33.32-14.39-33.32-37.58z"/>
                <path id="K" d="M375.77 468.65v-72.74h11.29v34.63h.45l30.4-34.63h13.41l-28.83 32.21 31.25 40.53h-14l-25.21-32.77-7.46 8.52v24.25z"/>
                <path id="S2" d="M465 448.38c.8 7.21 7.81 11.95 17.39 11.95 9.17 0 15.78-4.74 15.78-11.24 0-5.65-4-9-13.41-11.34l-9.43-2.27c-13.36-3.23-19.56-9.48-19.56-19.61 0-12.55 10.94-21.17 26.47-21.17 15.37 0 25.91 8.62 26.26 21.17h-11c-.66-7.26-6.65-11.64-15.43-11.64s-14.76 4.43-14.76 10.88c0 5.15 3.83 8.17 13.2 10.49l8 2c14.92 3.52 21.12 9.52 21.12 20.16 0 13.61-10.84 22.13-28.08 22.13-16.13 0-27-8.32-27.72-21.48z"/>
            </g>
            <g id="react-icon" fill="#61dafb">
                <path d="M271.93 432.29c0-7-8.57-13.69-21.7-17.82 3-13.75 1.68-24.69-4.25-28.19a9 9 0 0 0-4.69-1.21c-5.79 0-13.36 4.24-21 11.59-7.66-7.31-15.24-11.51-21-11.51a9.2 9.2 0 0 0-4.75 1.21c-5.91 3.5-7.24 14.42-4.19 28.13-13.09 4.15-21.61 10.78-21.61 17.79s8.56 13.69 21.7 17.81c-3 13.76-1.69 24.7 4.25 28.2a9 9 0 0 0 4.73 1.21c5.79 0 13.36-4.24 21-11.59 6.54 6.23 18.24 14.75 25.78 10.29 5.91-3.5 7.24-14.42 4.19-28.13 13.01-4.07 21.54-10.78 21.54-17.78zm-30.66-42.42a4.89 4.89 0 0 1 2.4.56c2.86 1.69 4.1 8.11 3.13 16.37-.23 2-.61 4.17-1.07 6.36a99.57 99.57 0 0 0-13.36-2.36 105.89 105.89 0 0 0-8.76-10.8c6.85-6.53 13.28-10.12 17.66-10.13zm-36.58 58.55c-3-.46-5.87-1-8.62-1.71.78-2.79 1.74-5.66 2.84-8.54a114.39 114.39 0 0 0 5.78 10.25zM196 417.87c2.76-.67 5.66-1.26 8.67-1.71-1.95 3.16-3.7 6.17-5.76 10.31a92.727 92.727 0 0 1-2.91-8.6zm5.37 14.48a115.62 115.62 0 0 1 9.43-16.88 106.49 106.49 0 0 1 19 0 116.11 116.11 0 0 1 9.47 16.82 117.41 117.41 0 0 1-9.43 16.88 107.44 107.44 0 0 1-19 0 114.35 114.35 0 0 1-9.47-16.82zm40.32 5.73c1.13 2.9 2.1 5.8 2.9 8.61-2.76.69-5.66 1.27-8.67 1.73a116.67 116.67 0 0 0 5.77-10.34zm-5.79-21.92q4.48.68 8.63 1.71c-.78 2.79-1.75 5.66-2.84 8.54a112.73 112.73 0 0 0-5.79-10.25zm-9.81-5.82a112.79 112.79 0 0 0-11.63 0 83 83 0 0 1 5.78-6.91 85.35 85.35 0 0 1 5.85 6.91zm-29.27-19.8a4.61 4.61 0 0 1 2.42-.56c4.36 0 10.82 3.56 17.68 10.07a101.4 101.4 0 0 0-8.69 10.79 95.67 95.67 0 0 0-13.38 2.38c-.49-2.16-.85-4.26-1.1-6.27-.99-8.28.25-14.7 3.07-16.41zm-5.3 54.89c-2.08-.67-4.06-1.4-5.89-2.2-7.45-3.27-12.27-7.55-12.27-10.94s4.82-7.7 12.27-10.94c1.81-.8 3.79-1.51 5.83-2.18a107.29 107.29 0 0 0 4.73 13.16 105.88 105.88 0 0 0-4.67 13.1zm7.81 29.28a5 5 0 0 1-2.38-.58c-2.86-1.69-4.1-8.11-3.14-16.37.24-2 .62-4.17 1.08-6.36a99.28 99.28 0 0 0 13.36 2.36 105.85 105.85 0 0 0 8.75 10.81c-6.86 6.55-13.29 10.14-17.67 10.14zm21-13.56a87.64 87.64 0 0 1-5.85-6.92 110.23 110.23 0 0 0 11.64 0 83.28 83.28 0 0 1-5.77 6.92zM243.79 474a4.57 4.57 0 0 1-2.42.56c-4.35 0-10.81-3.57-17.67-10.07a102.66 102.66 0 0 0 8.69-10.79 95.93 95.93 0 0 0 13.38-2.38 62.52 62.52 0 0 1 1.09 6.29c.99 8.3-.23 14.72-3.07 16.39zM255 443.23c-1.81.8-3.79 1.51-5.83 2.18a105.2 105.2 0 0 0-4.74-13.16 103.83 103.83 0 0 0 4.67-13.11q3.13 1 5.92 2.21c7.45 3.26 12.26 7.54 12.26 10.94S262.41 440 255 443.23z"/>
                <ellipse cx="220.29" cy="432.29" rx="9.62" ry="9.88"/>
            </g>
            <g id="bars" fill="#ffffff">
                <path d="M30.37 290.06h72v70.43h-72zM438.37 180.49h72v180h-72zM166.37 219.62h72v140.87h-72zM302.37 266.58h72v93.91h-72z"/>
            </g>
            <path id="arrow" fill="#61dafb" d="M487.83 60.49L442.66 74l12.06 11.35L336.9 209.68l-131.16-69.23a7.26 7.26 0 0 0-7.77.66L58 248.78a7.19 7.19 0 0 0 8.8 11.37L203.1 155.3 335 224.92a7.22 7.22 0 0 0 8.61-1.42L465.19 95.17 477 106.23z"/>
        </g>
    </g>
</svg>
