<svg xmlns="http://www.w3.org/2000/svg" viewBox="0 0 1080 220">
    <title>
        react-stock-land
    </title>
    <g data-name="Layer 1">
        <path id="container" fill="none" d="M0 0h1080v220H0z"/>
        <g id="logo">
            <g id="letters" fill="#ffffff">
                <path id="S1" d="M331.61 134.33c1.22 10.89 11.81 18 26.28 18 13.86 0 23.84-7.16 23.84-17 0-8.53-6-13.63-20.26-17.14l-14.24-3.42C327 110 317.68 100.52 317.68 85.21c0-19 16.52-32 40-32 23.23 0 39.15 13 39.68 32h-16.6c-1-11-10.06-17.59-23.31-17.59s-22.31 6.7-22.31 16.45c0 7.77 5.79 12.34 19.95 15.84l12.11 3c22.54 5.33 31.91 14.39 31.91 30.46 0 20.57-16.37 33.44-42.42 33.44-24.37 0-40.82-12.57-41.89-32.45z"/>
                <path id="T" d="M469 165V69.75h-33.66v-14.7h84.31v14.7h-33.58V165z"/>
                <path id="C" d="M696.6 110c0-34.8 19.65-56.74 50.34-56.74 24.91 0 43.72 15.31 46.61 38.24h-16.91c-3-14.09-14.77-23.31-29.7-23.31C727 68.15 714 84.52 714 110c0 25.67 12.8 41.89 33 41.89 15.31 0 26.2-7.85 29.62-21.1h17c-4.19 22.7-21.4 36-46.69 36C716.1 166.78 696.6 145 696.6 110z"/>
                <path id="K" d="M837.76 165V55.05h17.06v52.32h.68l45.93-52.32h20.26l-43.57 48.67L925.34 165h-21.17l-38.08-49.5-11.27 12.87V165z"/>
                <path id="S2" d="M972.52 134.33c1.22 10.89 11.81 18 26.28 18 13.86 0 23.84-7.16 23.84-17 0-8.53-6-13.63-20.26-17.14l-14.24-3.42C968 110 958.59 100.52 958.59 85.21c0-19 16.52-32 40-32 23.23 0 39.15 13 39.68 32h-16.6c-1-11-10.06-17.59-23.31-17.59S976 74.32 976 84.07c0 7.77 5.78 12.34 20 15.84l12.11 3c22.54 5.33 31.91 14.39 31.91 30.46 0 20.57-16.37 33.44-42.42 33.44-24.37 0-40.82-12.57-41.89-32.45z"/>
            </g>
            <g id="react-icon" fill="#61dafb">
                <path d="M680.86 110c0-10.62-12.94-20.68-32.78-26.92 4.58-20.78 2.55-37.3-6.42-42.6a13.74 13.74 0 0 0-7.09-1.83c-8.74 0-20.19 6.4-31.76 17.51-11.57-11-23-17.38-31.76-17.38a13.91 13.91 0 0 0-7.19 1.83c-8.93 5.3-10.93 21.79-6.32 42.5-19.78 6.27-32.65 16.3-32.65 26.89s12.94 20.67 32.78 26.91c-4.58 20.78-2.55 37.31 6.42 42.6a13.67 13.67 0 0 0 7.15 1.83c8.74 0 20.19-6.4 31.76-17.51 9.87 9.42 27.56 22.29 39 15.55 8.93-5.29 10.93-21.79 6.32-42.5 19.68-6.22 32.54-16.28 32.54-26.88zm-46.32-64.07a7.13 7.13 0 0 1 3.62.85c4.33 2.55 6.2 12.25 4.74 24.73-.35 3.07-.92 6.3-1.62 9.6a149.18 149.18 0 0 0-20.19-3.56 158.61 158.61 0 0 0-13.22-16.33c10.34-9.86 20.06-15.28 26.67-15.29zm-55.26 88.46c-4.51-.69-8.87-1.54-13-2.59 1.18-4.21 2.64-8.55 4.29-12.9a172.77 172.77 0 0 0 8.71 15.49zm-13.13-46.16c4.17-1 8.56-1.9 13.1-2.58-3 4.77-5.59 9.32-8.71 15.58-1.72-4.38-3.18-8.76-4.39-13zm8.11 21.88A177 177 0 0 1 588.5 84.6a161.62 161.62 0 0 1 28.68 0 173.6 173.6 0 0 1 14.31 25.4 175.71 175.71 0 0 1-14.25 25.52 162.46 162.46 0 0 1-28.67 0 173.69 173.69 0 0 1-14.31-25.41zm60.92 8.66c1.71 4.38 3.18 8.76 4.38 13-4.16 1-8.55 1.93-13.1 2.62a173 173 0 0 0 8.72-15.62zm-8.75-33.12c4.52.68 8.87 1.53 13 2.58-1.18 4.21-2.64 8.56-4.29 12.9a169.7 169.7 0 0 0-8.71-15.48zm-14.81-8.79a169 169 0 0 0-17.58 0 124.64 124.64 0 0 1 8.74-10.45 133.27 133.27 0 0 1 8.84 10.45zm-44.23-29.92a6.94 6.94 0 0 1 3.66-.85c6.58 0 16.34 5.39 26.71 15.22a151.41 151.41 0 0 0-13.13 16.3 144.21 144.21 0 0 0-20.22 3.59c-.74-3.26-1.28-6.43-1.66-9.47-1.49-12.51.35-22.21 4.64-24.79zm-8 82.94c-3.15-1-6.13-2.13-8.9-3.33-11.25-4.94-18.54-11.41-18.54-16.53s7.29-11.63 18.54-16.53c2.73-1.21 5.72-2.29 8.81-3.3a159 159 0 0 0 7.15 19.89 158.54 158.54 0 0 0-7.07 19.8zm11.8 44.23a7.51 7.51 0 0 1-3.6-.89c-4.32-2.54-6.2-12.24-4.73-24.72.35-3.07.92-6.31 1.62-9.61a149.18 149.18 0 0 0 20.19 3.56 158.77 158.77 0 0 0 13.22 16.34c-10.37 9.89-20.1 15.32-26.71 15.32zm31.76-20.48a133.16 133.16 0 0 1-8.84-10.46 166.28 166.28 0 0 0 17.58 0 128.48 128.48 0 0 1-8.75 10.46zm35.42 19.46a6.94 6.94 0 0 1-3.66.85c-6.58 0-16.34-5.39-26.71-15.22a152.64 152.64 0 0 0 13.13-16.3 144.21 144.21 0 0 0 20.22-3.59 94.56 94.56 0 0 1 1.66 9.5c1.48 12.48-.36 22.18-4.65 24.76zm16.88-46.54c-2.74 1.2-5.73 2.28-8.81 3.29a160.63 160.63 0 0 0-7.16-19.84 159.46 159.46 0 0 0 7.06-19.79c3.14 1 6.13 2.12 8.93 3.33 11.25 4.93 18.53 11.4 18.53 16.53s-7.31 11.58-18.56 16.48z"/>
                <ellipse cx="602.84" cy="110.02" rx="14.53" ry="14.93"/>
            </g>
            <g id="bars" fill="#ffffff">
                <path d="M40 135.19h30.28v29.62H40zM211.59 89.11h30.28v75.7h-30.28zM97.2 105.57h30.28v59.25H97.2zM154.4 125.31h30.28v39.5H154.4z"/>
            </g>
            <path id="arrow" fill="#61dafb" d="M232.39 38.64l-19 5.67 5.08 4.77-49.55 52.3-55.17-29.11a3 3 0 0 0-3.26.28l-58.88 45.28a3 3 0 0 0-.55 4.23 3 3 0 0 0 4.25.55l57.33-44.09 55.48 29.27a3 3 0 0 0 3.62-.59l51.13-54 4.95 4.66z"/>
        </g>
    </g>
</svg>
